<svg width="166" height="166" version="1.1" xmlns="http://www.w3.org/2000/svg" desc="Created with imagetracer.js version 1.2.6" ><path fill="rgb(0,0,0)" stroke="rgb(0,0,0)" stroke-width="1" opacity="0" d="M 0 0 L 166 0 L 166 166 L 0 166 L 0 0 Z M 87 47 L 24 110 L 73 110 L 73 104 L 73 103 L 42 103 L 81 63 L 82 126 L 144 64 L 143 62 L 97 62 L 95 64 Q 94 69 96 69 L 127 69 L 88 109 L 87 47 Z M 96 47 L 96 55 L 153 55 L 159 49 L 159 47 L 96 47 Z M 16 118 L 9 125 L 10 126 L 45 126 L 45 119 L 45 118 L 16 118 Z " /><path fill="rgb(255,255,255)" stroke="rgb(255,255,255)" stroke-width="1" opacity="0.8235294117647058" d="M 86.5 48 L 87 84.5 L 86 84.5 L 85.5 50 L 27.5 109 L 72 109.5 L 25.5 110 L 86.5 48 Z " /><path fill="rgb(255,255,255)" stroke="rgb(255,255,255)" stroke-width="1" opacity="0.8235294117647058" d="M 157.5 48 L 152.5 54 L 157.5 48 Z " /><path fill="rgb(255,255,255)" stroke="rgb(255,255,255)" stroke-width="1" opacity="0.8235294117647058" d="M 81.5 62 L 82.5 123 L 143 63.5 L 81 124.5 L 81.5 62 Z " /><path fill="rgb(255,255,255)" stroke="rgb(255,255,255)" stroke-width="1" opacity="0.8235294117647058" d="M 96.5 68 L 114 68.5 L 96.5 69 L 96.5 68 Z " /><path fill="rgb(255,255,255)" stroke="rgb(255,255,255)" stroke-width="1" opacity="0.8235294117647058" d="M 128.5 69 L 87.5 111 L 128.5 69 Z " /><path fill="rgb(255,255,255)" stroke="rgb(255,255,255)" stroke-width="1" opacity="0.8235294117647058" d="M 41.5 101 L 39.5 104 L 41.5 101 Z " /><path fill="rgb(255,255,255)" stroke="rgb(255,255,255)" stroke-width="1" opacity="0.8235294117647058" d="M 15.5 119 L 10.5 125 L 15.5 119 Z " /><path fill="rgb(255,255,255)" stroke="rgb(255,255,255)" stroke-width="1" opacity="0.8235294117647058" d="M 44.5 119 L 45 124.5 L 44 124.5 L 44.5 119 Z " /><path fill="rgb(255,255,255)" stroke="rgb(255,255,255)" stroke-width="1" opacity="0.996078431372549" d="M 96 48 L 157 48.5 L 151.5 54 L 96 54 L 96 48 Z " /><path fill="rgb(255,255,255)" stroke="rgb(255,255,255)" stroke-width="1" opacity="0.996078431372549" d="M 85.5 50 L 87.5 111 L 128.5 69 L 96 68 L 96.5 63 L 141.5 63 L 82.5 123 L 82 62 L 80.5 62 L 39 103.5 L 72 104 L 71.5 109 L 27.5 109 L 85.5 50 Z " /><path fill="rgb(255,255,255)" stroke="rgb(255,255,255)" stroke-width="1" opacity="0.996078431372549" d="M 16.5 119 L 43.5 119 L 44 119.5 L 44 125 L 11 124.5 L 16.5 119 Z " /><path fill="rgb(255,255,255)" stroke="rgb(255,255,255)" stroke-width="1" opacity="0.16862745098039217" d="M 86.5 47 L 24.5 110 L 86.5 47 Z " /><path fill="rgb(255,255,255)" stroke="rgb(255,255,255)" stroke-width="1" opacity="0.16862745098039217" d="M 96.5 47 L 158.5 47 L 159 48.5 L 152.5 55 L 96.5 55 L 96.5 54 L 152.5 54 L 158 48.5 L 96.5 48 L 96.5 47 Z " /><path fill="rgb(255,255,255)" stroke="rgb(255,255,255)" stroke-width="1" opacity="0.16862745098039217" d="M 80.5 62 L 42.5 101 L 80.5 62 Z " /><path fill="rgb(255,255,255)" stroke="rgb(255,255,255)" stroke-width="1" opacity="0.16862745098039217" d="M 96.5 62 L 142.5 62 L 144 63.5 L 81 125.5 L 142.5 63 L 96.5 63 Q 95.4 63.1 96 68.5 L 95 68.5 Q 93.8 63.3 96.5 62 Z " /><path fill="rgb(255,255,255)" stroke="rgb(255,255,255)" stroke-width="1" opacity="0.16862745098039217" d="M 127.5 69 L 87.5 110 L 127.5 69 Z " /><path fill="rgb(255,255,255)" stroke="rgb(255,255,255)" stroke-width="1" opacity="0.16862745098039217" d="M 40.5 103 L 72.5 103 Q 73.8 103.3 73 109.5 L 72 109.5 Q 72.6 104.1 71.5 104 L 40.5 104 L 40.5 103 Z " /><path fill="rgb(255,255,255)" stroke="rgb(255,255,255)" stroke-width="1" opacity="0.16862745098039217" d="M 15.5 118 L 45 118.5 L 15.5 119 L 10 124.5 L 45 125.5 L 9 126 L 15.5 118 Z " /></svg>