<?xml version="1.0" encoding="UTF-8"?>
<svg version="1.1" xmlns="http://www.w3.org/2000/svg" width="252" height="252">
<path d="M0 0 C1.56969292 -0.0098568 1.56969292 -0.0098568 3.1710968 -0.01991272 C6.62798139 -0.03958934 10.08482251 -0.05129959 13.54174805 -0.0612793 C14.72860891 -0.06535482 15.91546978 -0.06943035 17.13829613 -0.07362938 C23.42780761 -0.0944722 29.71729742 -0.10877826 36.00683594 -0.11816406 C42.46436399 -0.12918805 48.92154363 -0.16354705 55.37894917 -0.20333576 C60.37652674 -0.22964412 65.37402334 -0.23786876 70.37166405 -0.24144554 C72.74959843 -0.24627958 75.12752998 -0.25780112 77.50539589 -0.27648354 C104.20261177 -0.47309953 126.51007749 4.44491822 146.4909668 23.17700195 C162.49043171 39.09538849 170.6066772 59.32084689 170.66796875 81.7019043 C170.67453995 82.74997253 170.68111115 83.79804077 170.68788147 84.87786865 C170.70755646 88.33955975 170.71926732 91.80120747 170.72924805 95.26293945 C170.73332357 96.45104847 170.7373991 97.63915749 170.74159813 98.86326981 C170.7624392 105.15811233 170.77674661 111.45293321 170.78613281 117.74780273 C170.79716278 124.21439692 170.83152929 130.68064375 170.87130451 137.14711571 C170.89759548 142.14894195 170.90583594 147.1506872 170.90941429 152.15257645 C170.91425195 154.53412839 170.92578419 156.91567741 170.94445229 159.2971611 C171.14318916 186.34167383 165.54907213 208.75865775 146.69799805 229.05981445 C133.56566056 241.65756121 114.38011525 252.22469583 95.7454071 252.32417297 C94.81927109 252.33132828 93.89313507 252.33848358 92.93893433 252.34585571 C91.93476471 252.34854462 90.93059509 252.35123352 89.89599609 252.35400391 C88.82856674 252.3605751 87.76113739 252.3671463 86.66136169 252.37391663 C83.1293022 252.39362049 79.5972853 252.40530968 76.06518555 252.4152832 C74.85409433 252.41935873 73.64300312 252.42343426 72.39521217 252.42763329 C65.97718096 252.44848785 59.55917104 252.46278875 53.14111328 252.47216797 C46.5455779 252.4831934 39.95038351 252.51755071 33.35496807 252.55733967 C28.25620443 252.58362785 23.15752027 252.59187092 18.05869484 252.59544945 C15.62969489 252.6002888 13.20069784 252.61182598 10.77176476 252.63048744 C-5.65330562 252.74877417 -21.13422062 252.37175508 -35.9465332 244.36450195 C-36.6084668 244.0197583 -37.27040039 243.67501465 -37.95239258 243.31982422 C-43.27589481 240.47195949 -47.95901397 237.14792783 -52.5090332 233.17700195 C-53.48163086 232.43450195 -53.48163086 232.43450195 -54.47387695 231.67700195 C-69.33199033 219.90819928 -79.04401373 199.6322253 -81.5090332 181.17700195 C-81.66578399 177.66893068 -81.67641959 174.16329364 -81.68603516 170.65209961 C-81.69260635 169.60403137 -81.69917755 168.55596313 -81.70594788 167.47613525 C-81.72562287 164.01444415 -81.73733372 160.55279643 -81.74731445 157.09106445 C-81.75138998 155.90295544 -81.75546551 154.71484642 -81.75966454 153.4907341 C-81.7805056 147.19589158 -81.79481302 140.9010707 -81.80419922 134.60620117 C-81.81522918 128.13960699 -81.8495957 121.67336015 -81.88937092 115.2068882 C-81.91566189 110.20506195 -81.92390235 105.20331671 -81.9274807 100.20142746 C-81.93231836 97.81987552 -81.94385059 95.43832649 -81.96251869 93.0568428 C-82.16368799 65.68132057 -76.58392248 43.78278122 -57.5090332 23.17700195 C-41.49067995 7.90138533 -22.03412865 0.06043817 0 0 Z " fill="#000000" transform="translate(81.509033203125,-0.177001953125)"/>
<path d="M0 0 C5.21031273 -0.09980707 10.42005385 -0.17190561 15.63110352 -0.21972656 C17.39910593 -0.23968762 19.16704366 -0.26686652 20.93481445 -0.30175781 C43.92161204 -0.74368663 43.92161204 -0.74368663 53.4375 7.625 C58.32170483 13.03072156 61.08771647 19.19485124 61.5 26.5 C61.05686471 34.60508741 57.39415013 41.11328972 52.26953125 47.2109375 C45.31600285 52.69237641 38.3199107 53.57628461 29.69702148 53.45410156 C28.60330734 53.45468567 27.5095932 53.45526978 26.38273621 53.45587158 C22.79519056 53.45310191 19.20849289 53.42206151 15.62109375 53.390625 C13.12289382 53.38315867 10.624688 53.37746759 8.1264801 53.37347412 C2.24050088 53.35980201 -3.64516907 53.3283301 -9.53102201 53.28807616 C-16.89627872 53.23880825 -24.26157358 53.21745944 -31.62695312 53.1953125 C-44.75145432 53.15249644 -57.87570805 53.08505829 -71 53 C-70.38511719 51.87851563 -70.38511719 51.87851563 -69.7578125 50.734375 C-69.21898438 49.74953125 -68.68015625 48.7646875 -68.125 47.75 C-67.32449219 46.28820312 -67.32449219 46.28820312 -66.5078125 44.796875 C-65.29580534 42.54869592 -64.12452433 40.2927195 -63 38 C-61.79001343 37.99857498 -60.58002686 37.99714996 -59.33337402 37.99568176 C-47.91595381 37.97899356 -36.49888918 37.93616384 -25.08165741 37.86790943 C-19.21226416 37.83365663 -13.34313074 37.80853203 -7.47363281 37.80444336 C-1.80645044 37.80015687 3.86014597 37.77166403 9.52714539 37.72656822 C11.68638188 37.71360461 13.84568853 37.70928148 16.00495911 37.71384621 C19.03584631 37.71876008 22.06502613 37.69262353 25.09570312 37.65942383 C25.98331329 37.66804947 26.87092346 37.67667511 27.78543091 37.68556213 C33.95321264 37.57271918 38.24689972 36.0126843 43 32 C44.73631636 28.52736727 44.60190402 24.78806987 44 21 C41.81840855 18.24430553 40.12822506 16.56411253 37 15 C34.82917162 14.98873496 32.65795424 15.03376205 30.48828125 15.10546875 C28.46429032 15.12431041 26.44029334 15.14298953 24.41625977 15.15649414 C23.02227201 15.17703916 21.62842518 15.21717246 20.2355957 15.27758789 C15.63318927 15.46522909 11.44291978 15.40258526 7 14 C3.4933929 10.2662828 0 5.32526373 0 0 Z " fill="#FBFBFB" transform="translate(145,119)"/>
<path d="M0 0 C3.60915127 0.40074195 5.10907769 1.01799244 7.69726562 3.58984375 C9.8791054 6.76145132 11.72678444 10.04492204 13.53125 13.4375 C14.23617292 14.68793766 14.94541255 15.93595048 15.65869141 17.18164062 C17.175826 19.84144236 18.67117105 22.51196168 20.15332031 25.19140625 C23.8366939 31.81494586 27.75053287 38.30342593 31.63769531 44.80859375 C32.89001915 46.91026116 34.13388567 49.0166968 35.375 51.125 C35.95877914 52.11433533 35.95877914 52.11433533 36.55435181 53.12365723 C37.28076303 54.35502029 38.00562875 55.587297 38.72860718 56.82067871 C40.14519876 59.21520651 41.58022874 61.5015227 43.27197266 63.71289062 C44.53125 65.4375 44.53125 65.4375 44.53125 67.4375 C41.52099413 67.79254026 38.55246354 68.04634783 35.53125 68.25 C34.69207031 68.35892578 33.85289062 68.46785156 32.98828125 68.58007812 C30.06814218 68.72721692 28.23817339 68.57705489 25.53125 67.4375 C22.59613538 64.0583955 20.57621573 60.31619619 18.53991699 56.3621521 C16.84428954 53.12670079 14.95869187 50.00388417 13.1015625 46.859375 C12.36058423 45.58544576 11.62100205 44.31070347 10.8828125 43.03515625 C10.33415527 42.08793701 10.33415527 42.08793701 9.77441406 41.12158203 C9.01697063 39.81143643 8.26082433 38.50054021 7.50585938 37.18896484 C6.396612 35.26384429 5.28089581 33.34260178 4.1640625 31.421875 C3.51324707 30.29491211 2.86243164 29.16794922 2.19189453 28.00683594 C0.78500389 25.35253266 0.78500389 25.35253266 -1.46875 24.4375 C-1.69433594 25.07558594 -1.91992188 25.71367188 -2.15234375 26.37109375 C-3.96796957 30.60037052 -6.23779389 34.51362903 -8.53125 38.5 C-9.0478418 39.40177979 -9.56443359 40.30355957 -10.09667969 41.23266602 C-15.3563983 50.35120037 -20.82317769 59.34293473 -26.32836914 68.31469727 C-30.32063316 74.83645069 -34.20801614 81.39709749 -37.95623779 88.06187439 C-40.36893592 92.33768592 -40.36893592 92.33768592 -41.46875 93.4375 C-42.81142413 93.52381874 -44.15849322 93.54456473 -45.50390625 93.53515625 C-46.31279297 93.53193359 -47.12167969 93.52871094 -47.95507812 93.52539062 C-48.80521484 93.51701172 -49.65535156 93.50863281 -50.53125 93.5 C-51.38525391 93.49548828 -52.23925781 93.49097656 -53.11914062 93.48632812 C-55.23570663 93.47450373 -57.35223685 93.45656769 -59.46875 93.4375 C-58.18542102 89.16969417 -56.56631958 85.63640484 -54.22265625 81.8515625 C-53.55999756 80.77245605 -52.89733887 79.69334961 -52.21459961 78.58154297 C-51.85993622 78.00998474 -51.50527283 77.43842651 -51.13986206 76.84954834 C-49.20812077 73.73564115 -47.2967025 70.60927387 -45.3828125 67.484375 C-44.77985603 66.50155045 -44.77985603 66.50155045 -44.16471863 65.49887085 C-40.07267541 58.81721534 -36.08339218 52.07625041 -32.10031128 45.32928467 C-30.90758537 43.31475546 -29.70808497 41.30442888 -28.50610352 39.29541016 C-24.99106455 33.41564172 -21.49832696 27.53328789 -18.16749573 21.54666138 C-16.78660095 19.07636189 -15.37500167 16.62447349 -13.95779419 14.17486572 C-12.99536067 12.4842446 -12.07593963 10.76936382 -11.15795898 9.05419922 C-8.18803991 3.9667437 -6.11201872 0.74085075 0 0 Z " fill="#F9F9F9" transform="translate(102.46875,78.5625)"/>
<path d="M0 0 C19.8 0 39.6 0 60 0 C60 4.62 60 9.24 60 14 C52.7412491 14.29748979 45.4860683 14.51475872 38.22265625 14.65917969 C35.75457952 14.71939247 33.28692854 14.80118853 30.8203125 14.90527344 C10.81359969 15.72813017 10.81359969 15.72813017 6.07177734 12.81567383 C2.90507838 9.73940819 1.22562554 6.18438504 0 2 C0 1.34 0 0.68 0 0 Z " fill="#F4F4F4" transform="translate(121,80)"/>
<path d="M0 0 C4.13695339 3.60533555 6.55336115 7.98797968 9.25 12.6875 C9.70890625 13.47189453 10.1678125 14.25628906 10.640625 15.06445312 C14 20.84837705 14 20.84837705 14 22 C5.42 22 -3.16 22 -12 22 C-10.63988088 18.59970219 -9.44790784 15.86764009 -7.6171875 12.79296875 C-6.95009766 11.66665039 -6.95009766 11.66665039 -6.26953125 10.51757812 C-5.80933594 9.74865234 -5.34914063 8.97972656 -4.875 8.1875 C-4.40707031 7.39923828 -3.93914062 6.61097656 -3.45703125 5.79882812 C-2.30784603 3.86397546 -1.15542997 1.93112772 0 0 Z " fill="#0096F4" transform="translate(102,119)"/>
</svg>
