<?xml version="1.0" encoding="UTF-8"?>
<svg version="1.1" xmlns="http://www.w3.org/2000/svg" width="2152" height="320">
<path d="M0 0 C16.41277429 -0.07037602 32.82549892 -0.1231272 49.23838806 -0.15543652 C56.86079989 -0.17084334 64.48311746 -0.19181305 72.10546875 -0.22631836 C78.75643515 -0.25641175 85.40733322 -0.27561982 92.05836582 -0.28226548 C95.57341038 -0.28614435 99.08825961 -0.29512752 102.60324097 -0.31719017 C131.3692701 -0.49055821 159.36911933 2.76784524 181 24 C181 24.66 181 25.32 181 26 C181.66 26 182.32 26 183 26 C184.6752725 27.92234506 186.22158587 29.84031103 187.75 31.875 C188.19883545 32.46780762 188.6476709 33.06061523 189.11010742 33.67138672 C192.77987722 38.58248971 196.10693844 43.5874554 199 49 C199.65935547 50.22009766 199.65935547 50.22009766 200.33203125 51.46484375 C210.60392653 72.10173306 211.40590554 97.07221265 204.8984375 118.94921875 C196.63092482 143.19169948 180.26897343 162.40758528 157.421875 173.78125 C144.74103682 179.47924777 133.08962232 181.4477589 119.28253174 181.36076355 C117.72124854 181.3620742 116.15996599 181.36470537 114.59868693 181.36853105 C110.33872141 181.37519711 106.0789848 181.36329725 101.8190484 181.34819686 C97.21389975 181.33518437 92.60876295 181.33962963 88.00360107 181.34190369 C80.03489397 181.34347314 72.06626083 181.33409833 64.09757233 181.31719017 C52.57634234 181.29276011 41.05514795 181.2849908 29.53389487 181.2812262 C10.8393081 181.27466799 -7.85523929 181.25472396 -26.54980469 181.22631836 C-44.70475061 181.19876145 -62.85968581 181.17753586 -81.01464844 181.16479492 C-82.13460609 181.16400675 -83.25456375 181.16321858 -84.40845951 181.16240653 C-90.02722263 181.15849128 -95.64598581 181.15470019 -101.26474905 181.15097082 C-147.8431933 181.11989456 -194.42159461 181.06707596 -241 181 C-240.05182679 179.25518665 -239.10286006 177.51080451 -238.15356445 175.76660156 C-237.62519485 174.79515198 -237.09682526 173.82370239 -236.55244446 172.82281494 C-234.4995167 169.08996954 -232.36089654 165.41361062 -230.1875 161.75 C-229.76299561 161.03183105 -229.33849121 160.31366211 -228.90112305 159.57373047 C-227.6033275 157.38094504 -226.30218818 155.1901792 -225 153 C-224.59813477 152.32291992 -224.19626953 151.64583984 -223.78222656 150.94824219 C-218.64939664 142.30861532 -218.64939664 142.30861532 -217.20192486 140.02164936 C-215.91160829 137.92095606 -215.91160829 137.92095606 -214.69830126 135.27390575 C-210.68650449 127.62716793 -210.68650449 127.62716793 -206.26802647 125.98404884 C-202.82978322 125.60134759 -199.53830578 125.57365088 -196.07948303 125.65942383 C-194.7739708 125.6480583 -193.46845858 125.63669277 -192.12338537 125.62498283 C-188.50891463 125.59493642 -184.89792233 125.63317199 -181.2837857 125.68271232 C-177.38234708 125.72411963 -173.4812092 125.70182396 -169.57965088 125.68721008 C-162.81969495 125.67045469 -156.06082174 125.6935604 -149.30104256 125.74346924 C-139.51033842 125.81542595 -129.72037879 125.82361236 -119.92945092 125.81586599 C-104.02103698 125.80472625 -88.11309703 125.8404346 -72.20483398 125.90771484 C-56.79272987 125.97275559 -41.38072941 126.02347565 -25.96850586 126.04931641 C-25.02056579 126.05091558 -24.07262573 126.05251475 -23.09596021 126.05416238 C-12.73247955 126.07117954 -2.36899876 126.08352567 7.99449253 126.09169006 C9.3636174 126.09279143 9.3636174 126.09279143 10.76040136 126.09391505 C16.2362888 126.09827938 16.2362888 126.09827938 21.71217663 126.10211241 C32.37238234 126.10924806 43.03234013 126.13054405 53.69244749 126.17776555 C60.38864508 126.20722573 67.08482283 126.2271055 73.78107332 126.23968917 C77.63727646 126.24747173 81.49328994 126.26036119 85.34941292 126.28695107 C112.13223695 127.16021062 112.13223695 127.16021062 136.86328125 118.3046875 C139 117 139 117 142 116 C142 115.34 142 114.68 142 114 C143.18493706 112.84891829 144.37091198 111.69888282 145.5625 110.5546875 C152.93460561 102.58159502 154.88658766 93.59775265 155 83 C154.05140609 73.10752061 149.2420723 64.68712423 142 58 C138.8119049 55.63885107 135.58757499 53.6915509 132 52 C131.35569534 51.66597168 130.71139069 51.33194336 130.04756165 50.98779297 C121.14204548 47.01304105 112.26786342 47.63425392 102.73420525 47.88092804 C99.65966649 47.95444436 96.58665572 47.99178554 93.5113678 48.01800537 C84.77649829 48.09334573 76.0437228 48.18889085 67.3112793 48.41455078 C61.94859143 48.5505119 56.58989833 48.60772419 51.22555733 48.61446381 C49.19307471 48.63176562 47.16061206 48.67802298 45.12949944 48.75461578 C29.72872329 49.31900346 29.72872329 49.31900346 25.20454788 45.47413635 C22.05434631 41.71408547 19.93953581 37.56073667 17.96975899 33.09354401 C16.38250232 29.66692799 14.36635183 26.51482979 12.375 23.3125 C11.64206998 22.08610299 10.91128208 20.85842068 10.18359375 19.62890625 C8.70719381 17.15758456 7.19812965 14.71081353 5.66015625 12.27734375 C5.28648926 11.68332764 4.91282227 11.08931152 4.52783203 10.47729492 C3.50152181 8.85142282 2.46779986 7.23023603 1.43359375 5.609375 C0 3 0 3 0 0 Z " fill="#000000" transform="translate(357,135)"/>
<path d="M0 0 C2.66763867 0.09596351 5.30308876 0.0416293 7.97094727 -0.02929688 C20.14419976 -0.03452326 20.14419976 -0.03452326 24.90234375 4.54467773 C26.97689397 7.89512159 28.56547915 11.21915556 30.09790039 14.84570312 C31.00372639 16.41699306 31.93673167 17.97320366 32.90649414 19.50585938 C33.78333599 20.97298483 34.65962331 22.44044183 35.53540039 23.90820312 C40.5213298 32.24201445 45.55275215 40.54767925 50.59790039 48.84570312 C57.84479239 60.76676128 65.04279625 72.71633679 72.20092773 84.69091797 C77.93359841 94.27966943 83.72873523 103.82997354 89.53085327 113.37680054 C96.51412512 124.86862953 103.44409375 136.39172442 110.34594727 147.93261719 C114.10462711 154.21637449 117.86961227 160.49425257 121.72290039 166.72070312 C126.27204499 174.08598485 130.70828694 181.51833787 135.15332031 188.94677734 C140.34403525 197.612868 145.59160156 206.24326817 150.8815918 214.84912109 C151.43637207 215.75549316 151.99115234 216.66186523 152.56274414 217.59570312 C153.05379639 218.39492187 153.54484863 219.19414062 154.05078125 220.01757812 C155.09790039 221.84570312 155.09790039 221.84570312 155.09790039 222.84570312 C146.50094042 223.14776218 137.90621635 223.37829279 129.30525208 223.51926136 C125.31055558 223.58694674 121.31950273 223.6786027 117.3269043 223.82641602 C113.46861501 223.96835248 109.61381198 224.04552005 105.75311279 224.07910728 C104.28547222 224.10301552 102.81801011 224.14971836 101.35186768 224.22019386 C96.70397679 224.43459441 92.55602537 224.38690079 88.09790039 222.84570312 C84.38662075 218.88697323 82.3534994 214.788647 80.09790039 209.84570312 C79.11084789 208.14520442 78.10628733 206.45449916 77.07055664 204.78320312 C76.099152 203.13816774 75.12914225 201.492308 74.16040039 199.84570312 C73.6202832 198.92982422 73.08016602 198.01394531 72.52368164 197.0703125 C67.50110147 188.54663197 62.50127721 180.00957861 57.50088501 171.47286987 C50.72957712 159.91286888 43.92259889 148.37426027 37.09790039 136.84570312 C35.01387313 133.32527986 32.9304579 129.80449606 30.84790039 126.28320312 C30.32744141 125.4033374 29.80698242 124.52347168 29.27075195 123.61694336 C26.06013206 118.18347537 22.8632694 112.74212146 19.67602539 107.29492188 C19.29661804 106.64669968 18.91721069 105.99847748 18.52630615 105.33061218 C16.65628699 102.13533864 14.78760279 98.9392971 12.92114258 95.74194336 C9.40069575 89.71890736 5.83890291 83.73485943 2.09790039 77.84570312 C-2.63839059 84.70077534 -6.84245488 91.79594876 -10.96459961 99.03320312 C-12.29571469 101.35535062 -13.62753802 103.6770721 -14.96069336 105.99804688 C-15.29359375 106.57809479 -15.62649414 107.1581427 -15.96948242 107.75576782 C-19.11333092 113.22742859 -22.31034868 118.66666658 -25.52709961 124.09570312 C-26.05795166 124.9917627 -26.58880371 125.88782227 -27.13574219 126.81103516 C-28.19906201 128.60456715 -29.26277908 130.3978637 -30.3269043 132.19091797 C-38.03370285 145.1797164 -45.70143994 158.1914409 -53.33959961 171.22070312 C-53.70012421 171.8356665 -54.0606488 172.45062988 -54.43209839 173.08422852 C-58.78917959 180.51777838 -63.13418898 187.95819731 -67.46728516 195.40576172 C-73.70738808 206.12824122 -80.03167658 216.79544578 -86.4387207 227.41894531 C-95.34032606 242.18069994 -104.14736961 256.99643409 -112.90209961 271.84570312 C-115.08873462 275.55454755 -117.27639165 279.26278656 -119.46459961 282.97070312 C-119.93373779 283.76718262 -120.40287598 284.56366211 -120.88623047 285.38427734 C-121.90277436 287.10673084 -122.95530713 288.80822947 -124.03442383 290.4921875 C-125.61571816 293.33148931 -126.68318181 295.9013015 -127.78930664 298.93359375 C-130.19841276 304.82106653 -132.66555998 310.01293675 -137.90209961 313.84570312 C-147.92100854 316.97901462 -158.97912497 315.82417452 -169.32116699 315.21899414 C-173.22097564 315.01271989 -177.12338595 314.92271943 -181.02709961 314.82226562 C-188.65920825 314.60903171 -196.27843487 314.26882429 -203.90209961 313.84570312 C-202.64749283 311.64340729 -201.39208491 309.44157446 -200.13623047 307.23999023 C-199.78605614 306.62511497 -199.43588181 306.01023972 -199.07509613 305.37673187 C-195.62655852 299.33392038 -192.05861124 293.36550391 -188.46459961 287.40820312 C-187.8084668 286.31765625 -187.15233398 285.22710937 -186.47631836 284.10351562 C-185.18669978 281.96009819 -183.89652383 279.81701598 -182.60571289 277.67431641 C-180.53365329 274.23394917 -178.46714585 270.79028232 -176.40209961 267.34570312 C-175.70420333 266.18293047 -175.00628584 265.02017055 -174.30834961 263.85742188 C-172.41047889 260.69457763 -170.5155186 257.52999752 -168.62084961 254.36523438 C-161.58797901 242.62397248 -154.51504874 230.90853857 -147.3977356 219.21838379 C-141.32969603 209.24657499 -135.35243255 199.22329943 -129.4296875 189.16455078 C-125.61585127 182.69622798 -121.72587872 176.28100236 -117.77929688 169.89282227 C-115.20245955 165.71002779 -112.67285663 161.49995131 -110.15209961 157.28320312 C-109.11438661 155.55010181 -108.07662481 153.81702973 -107.03881836 152.08398438 C-106.51852051 151.21467285 -105.99822266 150.34536133 -105.4621582 149.44970703 C-103.95126979 146.92777654 -102.4371305 144.40783354 -100.92163086 141.88867188 C-95.81444697 133.39640563 -90.74101555 124.88603864 -85.71459961 116.34570312 C-80.32773036 107.19744729 -74.83232825 98.11764552 -69.309021 89.05148315 C-63.8732537 80.12677762 -58.51645912 71.15864287 -53.21801758 62.15161133 C-49.9387218 56.58239998 -46.59513578 51.06003848 -43.18725586 45.56835938 C-38.64091176 38.20058875 -34.22971361 30.7491853 -29.78100586 23.32226562 C-29.14235596 22.29552734 -28.50370605 21.26878906 -27.84570312 20.2109375 C-26.4053542 17.71705864 -25.24224518 15.40112384 -24.11279297 12.77734375 C-18.7396777 1.04549788 -12.53310802 -0.51027737 0 0 Z " fill="#0090FE" transform="translate(211.902099609375,2.154296875)"/>
<path d="M0 0 C49.83 0 99.66 0 151 0 C151 28.35279989 148.84378682 49.23489712 131 71 C130.401875 71.74894531 129.80375 72.49789062 129.1875 73.26953125 C125.53813681 77.66017134 121.77870673 80.87921193 117 84 C118.74619502 89.06498673 121.54333434 93.44722166 124.3125 98 C124.84593018 98.88300781 125.37936035 99.76601562 125.92895508 100.67578125 C130.16659621 107.67274468 134.470841 114.62790281 138.78808594 121.57592773 C146.28742608 133.65905724 153.64117677 145.83100185 161 158 C161.63550781 159.04961914 162.27101563 160.09923828 162.92578125 161.18066406 C164.64069248 164.01467421 166.35235041 166.85061462 168.0625 169.6875 C168.56918213 170.52482666 169.07586426 171.36215332 169.59790039 172.22485352 C170.27840454 173.35685181 170.27840454 173.35685181 170.97265625 174.51171875 C171.36718994 175.16615967 171.76172363 175.82060059 172.16821289 176.49487305 C173 178 173 178 173 179 C133.12348313 182.22209387 133.12348313 182.22209387 123.82080078 177.32714844 C119.42028279 172.95348107 117.61890485 167.58199015 115.90039062 161.72314453 C114.47064859 157.39902775 112.05055684 153.84482529 109.5625 150.0625 C108.65275521 148.58758343 107.74785677 147.10966736 106.84765625 145.62890625 C103.20307725 139.69673161 99.53375471 133.77987734 95.86474609 127.86279297 C90.53706395 119.26588767 85.26235248 110.63700738 80 102 C77.36 102.33 74.72 102.66 72 103 C61.11 103 50.22 103 39 103 C39 128.08 39 153.16 39 179 C26.13 179 13.26 179 0 179 C0 141.05 0 103.1 0 64 C34.1875 63.75 34.1875 63.75 44.90307617 63.70214844 C48.12818047 63.66884774 48.12818047 63.66884774 51.35322571 63.63043213 C52.76759983 63.61600774 54.18206429 63.60905389 55.59651184 63.60845947 C71.94310563 63.58986563 85.93190467 60.07577437 97.9375 48.4375 C100.97052141 45.34943283 102.70464801 42.82558666 105 39 C70.35 39 35.7 39 0 39 C0 26.13 0 13.26 0 0 Z " fill="#009DFF" transform="translate(816,74)"/>
<path d="M0 0 C20.24157911 -0.16043524 20.24157911 -0.16043524 28.98046875 -0.1953125 C34.90493397 -0.21907078 40.82914808 -0.24693776 46.75341797 -0.30175781 C51.53861333 -0.34575196 56.3235388 -0.369248 61.10892105 -0.37950897 C62.91945764 -0.38680558 64.72998227 -0.40104847 66.54040146 -0.42292023 C94.30193233 -0.74445967 118.06091718 7.19402456 138.25 26.625 C154.50115392 43.04529694 162.93901404 66.21730449 163.4375 89.125 C162.67451884 114.5322727 152.85441587 138.34082533 134.28125 156.06640625 C122.33323072 166.19358013 109.10316514 172.90955944 94 177 C93.04357542 177.2673453 93.04357542 177.2673453 92.06782913 177.54009151 C88.52145638 178.32884475 84.90062957 178.12922641 81.28417969 178.11352539 C80.39160084 178.11364593 79.49902199 178.11376646 78.57939529 178.11389065 C75.69352974 178.11314497 72.80772898 178.10553239 69.921875 178.09765625 C68.13883495 178.09618576 66.35579447 178.09516571 64.57275391 178.09460449 C57.96516268 178.08936397 51.3575807 178.07540275 44.75 178.0625 C29.9825 178.041875 15.215 178.02125 0 178 C0 140.38 0 102.76 0 64 C12.87 64 25.74 64 39 64 C39 89.08 39 114.16 39 140 C49.333125 139.8453125 49.333125 139.8453125 59.875 139.6875 C62.0288623 139.66260498 64.18272461 139.63770996 66.40185547 139.61206055 C68.14032054 139.5797262 69.8787666 139.54634631 71.6171875 139.51171875 C72.4944751 139.50547485 73.3717627 139.49923096 74.27563477 139.49279785 C86.85663045 139.20504289 99.05856061 134.31431963 108.37890625 125.75390625 C119.02483912 114.23577647 123.59219258 101.13171158 123.30859375 85.6171875 C122.27041073 73.44810549 116.82492029 61.32847635 108.0625 52.75 C104.02143006 49.43673854 99.63272027 46.99765962 95 44.625 C94.34781494 44.29081055 93.69562988 43.95662109 93.02368164 43.61230469 C82.3900586 38.47088904 71.59588001 38.66486032 60.05859375 38.5859375 C58.32266849 38.56720228 56.58675212 38.54762716 54.85084534 38.5272522 C50.30867781 38.47617341 45.76648084 38.43641873 41.22418213 38.39910889 C35.75986947 38.35183457 30.29570014 38.29034175 24.83150482 38.23126221 C16.55439518 38.14334602 8.27730888 38.07337013 0 38 C0 25.46 0 12.92 0 0 Z " fill="#009DFF" transform="translate(1004,75)"/>
<path d="M0 0 C1.04509232 -0.00043808 2.09018463 -0.00087616 3.16694641 -0.00132751 C6.58659206 0.00074564 10.00573403 0.02400707 13.42529297 0.04760742 C15.80996432 0.05320861 18.19463914 0.05747624 20.57931519 0.06047058 C26.82972894 0.0718781 33.07993073 0.10131004 39.33026123 0.13458252 C45.71868015 0.16537179 52.1071336 0.17899481 58.49560547 0.1940918 C71.01132316 0.22618368 83.52688413 0.27733036 96.04248047 0.34057617 C96.20819959 1.76395771 96.37174592 3.18759231 96.53439331 4.61132812 C96.62570463 5.40408646 96.71701595 6.19684479 96.81109428 7.0136261 C97.12697996 10.1903508 97.17219374 13.33675716 97.17529297 16.52807617 C97.17658203 17.80295898 97.17787109 19.0778418 97.17919922 20.39135742 C97.17533203 21.69459961 97.17146484 22.9978418 97.16748047 24.34057617 C97.17104827 25.68823336 97.17495206 27.0358897 97.17919922 28.38354492 C97.17726563 30.28040039 97.17726563 30.28040039 97.17529297 32.21557617 C97.17416504 33.36799805 97.17303711 34.52041992 97.171875 35.70776367 C97.04248047 38.34057617 97.04248047 38.34057617 96.04248047 39.34057617 C93.21207375 39.43578523 90.40613054 39.46611248 87.57543945 39.45410156 C86.68771851 39.45424759 85.79999756 39.45439362 84.88537598 39.45454407 C81.93641763 39.4538446 78.9875216 39.44605065 76.03857422 39.43823242 C73.9997613 39.43636836 71.96094793 39.4349444 69.9221344 39.4339447 C64.54463473 39.43011858 59.16716189 39.42028749 53.78967285 39.40924072 C48.30688846 39.39902862 42.82409975 39.39444752 37.34130859 39.3894043 C26.57501884 39.37866531 15.80875608 39.36106775 5.04248047 39.34057617 C5.04248047 48.91057617 5.04248047 58.48057617 5.04248047 68.34057617 C30.45248047 68.34057617 55.86248047 68.34057617 82.04248047 68.34057617 C82.04248047 81.21057617 82.04248047 94.08057617 82.04248047 107.34057617 C56.63248047 107.34057617 31.22248047 107.34057617 5.04248047 107.34057617 C5.04248047 116.91057617 5.04248047 126.48057617 5.04248047 136.34057617 C35.07248047 136.34057617 65.10248047 136.34057617 96.04248047 136.34057617 C96.90328068 140.64457724 97.17137817 144.15418251 97.17529297 148.50463867 C97.17624969 149.17852631 97.17720642 149.85241394 97.17819214 150.54672241 C97.17886961 151.96368504 97.17704565 153.38065084 97.17285156 154.79760742 C97.16748029 156.96564678 97.17281976 159.13348056 97.17919922 161.30151367 C97.17853869 162.68172246 97.17725805 164.06193112 97.17529297 165.44213867 C97.17416504 166.69333496 97.17303711 167.94453125 97.171875 169.23364258 C97.04248047 172.34057617 97.04248047 172.34057617 96.04248047 175.34057617 C82.28144916 175.43345188 68.52049301 175.50443051 54.75921154 175.54782486 C48.36857684 175.56865699 41.97815735 175.59689508 35.58764648 175.64233398 C29.41494457 175.68594714 23.24244904 175.70974615 17.06960487 175.72008514 C14.72019517 175.72744873 12.37079615 175.74182785 10.02147484 175.7634964 C6.71858096 175.79273535 3.41652884 175.79652354 0.11352539 175.79467773 C-0.8474556 175.80905884 -1.80843658 175.82343994 -2.79853821 175.83825684 C-12.95267125 175.77726501 -22.64189337 172.59217059 -29.95751953 165.34057617 C-37.30775849 156.222351 -39.08832487 147.09623742 -39.16064453 135.53588867 C-39.1663446 134.81247284 -39.17204468 134.08905701 -39.17791748 133.34371948 C-39.18730429 131.82266677 -39.19387608 130.30159431 -39.19775391 128.78051758 C-39.20746478 126.47855555 -39.23854928 124.17748592 -39.27001953 121.87573242 C-39.34409127 111.56914914 -38.76894549 102.70889949 -31.95751953 94.34057617 C-26.15407778 89.69782277 -20.3517751 87.97988078 -12.95751953 88.34057617 C-12.95751953 87.68057617 -12.95751953 87.02057617 -12.95751953 86.34057617 C-13.51439453 86.38698242 -14.07126953 86.43338867 -14.64501953 86.48120117 C-21.58159858 86.80928261 -26.3690688 85.40131356 -31.68408203 80.86791992 C-39.77446321 72.43877894 -39.43874268 61.21751185 -39.34863281 50.23681641 C-39.33257271 47.91077821 -39.34853591 45.58648308 -39.36767578 43.26049805 C-39.38578653 31.03019239 -38.2798188 19.9711845 -29.95751953 10.34057617 C-21.30734536 1.82297172 -11.84271656 -0.13242447 0 0 Z " fill="#030303" transform="translate(2028.95751953125,77.659423828125)"/>
<path d="M0 0 C0 14.19 0 28.38 0 43 C-4.75575631 42.20737395 -8.51802942 41.21880419 -13 39.625 C-27.99566627 34.45613816 -42.53516908 32.81489391 -58.3125 32.75 C-59.55451172 32.729375 -60.79652344 32.70875 -62.07617188 32.6875 C-71.12774858 32.64952799 -80.39645534 33.02123581 -88.1875 38.0625 C-90.5070844 40.54205574 -90.97620565 41.45272997 -91.125 44.875 C-91.06909893 48.56662978 -91.06909893 48.56662978 -90 52 C-79.02872579 56.94355875 -67.44737561 58.92822333 -55.625 60.5 C-36.88141034 63.00464364 -16.01644779 65.97222892 -2.64453125 80.80078125 C6.8646183 93.51729241 9.36742022 108.0488809 7.375 123.6875 C4.74720662 137.94765874 -2.24336109 149.5036055 -14 158 C-32.44096991 169.57205366 -52.66023643 171.45579136 -74 171 C-74.70012207 170.98743164 -75.40024414 170.97486328 -76.12158203 170.96191406 C-85.28559283 170.75626418 -94.21794917 169.82146793 -103.25 168.25 C-104.11189941 168.10530273 -104.97379883 167.96060547 -105.86181641 167.81152344 C-113.7644732 166.33731386 -120.16333741 163.79880807 -128 161 C-128 146.81 -128 132.62 -128 118 C-123.25675519 118.7905408 -119.57969669 119.7666303 -115.125 121.375 C-107.2057697 124.13280231 -99.27793151 125.6910963 -91 127 C-89.36659668 127.25910156 -89.36659668 127.25910156 -87.70019531 127.5234375 C-82.21966818 128.22929584 -76.77874471 128.22405473 -71.25878906 128.24023438 C-69.26875793 128.24990881 -67.27886945 128.28110265 -65.2890625 128.3125 C-55.90149522 128.35012552 -45.77246366 127.9588888 -38 122 C-36.23687059 118.47374118 -36.83446667 114.53118331 -37.25 110.6875 C-38.31794723 108.28461873 -39.60101402 108.04405194 -42 107 C-53.36492562 103.08177645 -64.98125519 101.41284056 -76.8293457 99.72094727 C-94.77631697 97.13083331 -115.34082966 93.28193224 -127 78 C-135.3802649 63.9831204 -137.60197682 48.02260108 -134.3125 31.95703125 C-130.35211284 18.14518105 -122.22673275 7.40920374 -109.6875 0.375 C-78.07942437 -15.79657358 -32.25303292 -13.82272839 0 0 Z " fill="#030303" transform="translate(1519,85)"/>
<path d="M0 0 C2.36259429 -0.0361991 4.7251236 -0.0768751 7.08757019 -0.12168884 C13.50136922 -0.22738654 19.91361654 -0.26141726 26.32820249 -0.27605224 C30.33883936 -0.28604366 34.34919173 -0.31511345 38.35969353 -0.34853554 C51.63927401 -0.45687944 64.91788632 -0.51689081 78.1979102 -0.5182943 C79.27073567 -0.51842319 79.27073567 -0.51842319 80.36523438 -0.51855469 C81.43938125 -0.51866709 81.43938125 -0.51866709 82.53522807 -0.51878176 C94.12825102 -0.52301682 105.71675527 -0.64391726 117.30836464 -0.81751903 C129.23057354 -0.99464308 141.15056835 -1.08129113 153.07412475 -1.07585889 C159.76136026 -1.0747077 166.44285389 -1.11274431 173.12896919 -1.24410057 C215.00907892 -2.01376477 215.00907892 -2.01376477 222.76901245 3.98149109 C227.96188017 9.50301947 230.46617392 15.48688663 232.36006355 22.74453163 C233.6167605 26.99714457 235.8294625 30.38762497 238.29858398 34.02807617 C239.03313404 35.21355947 239.76314679 36.4018818 240.48608398 37.59448242 C241.56202939 39.34201466 242.63952367 41.08856951 243.71850586 42.83422852 C244.81147191 44.60488996 245.89909976 46.37873848 246.98608398 48.15307617 C247.92073486 49.66780518 247.92073486 49.66780518 248.87426758 51.21313477 C250.21264648 53.62963867 250.21264648 53.62963867 250.21264648 55.62963867 C149.56264648 55.62963867 48.91264648 55.62963867 -54.78735352 55.62963867 C-51.25337664 49.15068107 -47.73595043 42.7195745 -43.97485352 36.37963867 C-43.55034912 35.66146973 -43.12584473 34.94330078 -42.68847656 34.20336914 C-41.39068101 32.01058371 -40.08954169 29.81981787 -38.78735352 27.62963867 C-38.38548828 26.95255859 -37.98362305 26.27547852 -37.56958008 25.57788086 C-32.31915974 16.7403247 -32.31915974 16.7403247 -30.95073605 14.65015888 C-29.67681479 12.5804171 -29.67681479 12.5804171 -28.83253574 9.91370678 C-23.52745682 -2.32196951 -11.45693209 -0.0154915 0 0 Z " fill="#0091FE" transform="translate(170.787353515625,260.370361328125)"/>
<path d="M0 0 C14.19 0 28.38 0 43 0 C43.375 20.8125 43.375 20.8125 43.47802734 27.31176758 C43.52358455 44.42491663 43.52358455 44.42491663 49.09765625 60.34375 C50 62 50 62 51 65 C52.76591887 66.00916033 52.76591887 66.00916033 55 67 C55.928125 67.66 56.85625 68.32 57.8125 69 C66.0987661 74.19922579 75.85443144 74.77447751 85.23046875 72.78125 C93.7279505 70.38421707 100.07654961 66.41946145 105 59 C108.93992732 51.25099165 109.16687836 43.10002482 109.31640625 34.5703125 C109.3475779 33.084814 109.3475779 33.084814 109.37937927 31.56930542 C109.4445032 28.42127082 109.50358629 25.27315633 109.5625 22.125 C109.60572059 19.9843669 109.64933599 17.84374174 109.69335938 15.703125 C109.80088558 10.46883052 109.90023514 5.23447114 110 0 C124.19 0 138.38 0 153 0 C153.06926497 7.43444038 153.12888174 14.86773889 153.16479492 22.30224609 C153.179783 24.82572242 153.20018036 27.34917313 153.22631836 29.87255859 C153.477578 54.77189596 151.64419558 76.55403185 133.875 95.625 C124.9058107 104.2002722 110.92923106 113 98 113 C98 133.46 98 153.92 98 175 C83.81 175 69.62 175 55 175 C55 154.54 55 134.08 55 113 C50.71 112.01 46.42 111.02 42 110 C34.11781429 107.00545783 27.31930036 102.53853738 21 97 C20.37351562 96.45601563 19.74703125 95.91203125 19.1015625 95.3515625 C6.58273121 83.70740938 0.70851746 65.75383956 -0.15335083 49.02313232 C-0.36692468 41.0153757 -0.27443588 33.00903584 -0.1875 25 C-0.17241984 22.56771666 -0.15873736 20.13542423 -0.14648438 17.703125 C-0.11633389 11.80166998 -0.05756523 5.90150258 0 0 Z " fill="#030303" transform="translate(1695,78)"/>
<path d="M0 0 C52.47 0 104.94 0 159 0 C159.62280376 5.6052338 160.12741901 10.63374154 160.1328125 16.1875 C160.13410156 17.46238281 160.13539063 18.73726562 160.13671875 20.05078125 C160.13285156 21.35402344 160.12898438 22.65726563 160.125 24 C160.1285678 25.34765719 160.13247159 26.69531353 160.13671875 28.04296875 C160.13478516 29.93982422 160.13478516 29.93982422 160.1328125 31.875 C160.13168457 33.02742188 160.13055664 34.17984375 160.12939453 35.3671875 C160 38 160 38 159 39 C139.86 39 120.72 39 101 39 C101 83.88 101 128.76 101 175 C86.81 175 72.62 175 58 175 C58 130.12 58 85.24 58 39 C38.86 39 19.72 39 0 39 C0 26.13 0 13.26 0 0 Z " fill="#020202" transform="translate(1530,78)"/>
<path d="M0 0 C14.19 0 28.38 0 43 0 C43 44.88 43 89.76 43 136 C70.72 136 98.44 136 127 136 C127.86080021 140.30400107 128.1288977 143.81360634 128.1328125 148.1640625 C128.13376923 148.83795013 128.13472595 149.51183777 128.13571167 150.20614624 C128.13638914 151.62310887 128.13456518 153.04007467 128.13037109 154.45703125 C128.12499983 156.6250706 128.1303393 158.79290439 128.13671875 160.9609375 C128.13605822 162.34114629 128.13477758 163.72135495 128.1328125 165.1015625 C128.13168457 166.35275879 128.13055664 167.60395508 128.12939453 168.89306641 C128 172 128 172 127 175 C114.26474556 175.06965111 101.52953678 175.122888 88.79413033 175.15543652 C82.87993749 175.17106177 76.96587541 175.19224273 71.05175781 175.22631836 C65.33942258 175.25902369 59.62721278 175.27687662 53.91479111 175.28463173 C51.74040631 175.29015519 49.56602802 175.30094102 47.39169693 175.31719017 C44.33536437 175.33911283 41.27954364 175.34196072 38.22314453 175.34057617 C37.33337418 175.351362 36.44360382 175.36214783 35.52687073 175.3732605 C25.59164518 175.32487207 16.54497803 172.61992326 9 166 C0.35162488 156.14311832 -0.44484628 144.99514269 -0.34057617 132.37060547 C-0.33972831 130.92087319 -0.34020814 129.47113962 -0.34190369 128.02140808 C-0.34275888 124.11498499 -0.32521103 120.20884237 -0.30418181 116.30248404 C-0.28533495 112.2092493 -0.2836583 108.11600703 -0.28010559 104.0227356 C-0.27080853 96.28461825 -0.24622667 88.54662917 -0.21605712 80.80856812 C-0.18243999 71.99352812 -0.16600877 63.17848176 -0.15097082 54.36339355 C-0.11967481 36.24217504 -0.06469226 18.12113218 0 0 Z " fill="#030303" transform="translate(1855,78)"/>
<path d="M0 0 C67.65 0 135.3 0 205 0 C205 15.51 205 31.02 205 47 C182.07745517 47.31621138 159.15667972 47.57402004 136.23250675 47.72537041 C125.58804736 47.79751761 114.94504055 47.89584624 104.30151367 48.05615234 C95.02287571 48.19583455 85.74528966 48.28604613 76.46562952 48.31723893 C71.55284432 48.33547081 66.64306788 48.37820193 61.73124886 48.48022079 C57.10339252 48.57555921 52.47976974 48.60450976 47.85102463 48.58350754 C46.15654754 48.58734645 44.46192307 48.61503683 42.7682972 48.66887665 C30.33140726 49.04471039 30.33140726 49.04471039 26.45345187 45.64363337 C23.23306924 41.80197354 21.14622849 37.50232099 19 33 C17.84902695 31.04561579 16.68220077 29.10032329 15.48828125 27.171875 C14.42683568 25.36625677 13.36818405 23.55899284 12.3125 21.75 C11.24642869 19.93209521 10.18002425 18.11438573 9.11328125 16.296875 C8.60361816 15.42611328 8.09395508 14.55535156 7.56884766 13.65820312 C5.44208306 10.05468415 3.2695973 6.47934629 1.09057617 2.90722656 C0 1 0 1 0 0 Z " fill="#000000" transform="translate(277,4)"/>
<path d="M0 0 C1.56613893 0.12803472 3.13127142 0.28243018 4.6875 0.5 C5.02894043 1.13276855 5.37038086 1.76553711 5.72216797 2.41748047 C15.70983132 20.91724283 25.89079633 39.2976147 36.16821289 57.63745117 C46.10352252 75.37441105 55.9530724 93.15846914 65.76358032 110.96466064 C70.39504871 119.36871174 75.05582787 127.75576769 79.75 136.125 C80.3078418 137.12055908 80.86568359 138.11611816 81.44042969 139.1418457 C83.86969627 143.47678192 86.29958407 147.81135182 88.73632812 152.14208984 C90.48956529 155.25857409 92.23799802 158.37771417 93.98361206 161.49847412 C94.65517701 162.69706783 95.32842619 163.89471961 96.00344849 165.09136963 C96.94023237 166.75248363 97.87064606 168.41718522 98.80078125 170.08203125 C99.60189331 171.50866089 99.60189331 171.50866089 100.41918945 172.96411133 C101.53852941 175.20214484 102.13560807 177.08440946 102.6875 179.5 C95.94363888 179.70297343 89.20056546 179.84298898 82.4543457 179.93945312 C80.160101 179.97966605 77.86606108 180.03424675 75.57250977 180.10351562 C72.27308698 180.20066252 68.97637387 180.24594803 65.67578125 180.28125 C64.65164627 180.32254028 63.62751129 180.36383057 62.57234192 180.40637207 C55.62304068 180.41074332 55.62304068 180.41074332 53.01055908 177.86750793 C51.6965886 175.79914097 50.67362971 173.74107271 49.6875 171.5 C49.12434082 170.52377686 48.56118164 169.54755371 47.98095703 168.54174805 C47.47419434 167.62433838 46.96743164 166.70692871 46.4453125 165.76171875 C45.86209229 164.70871582 45.27887207 163.65571289 44.67797852 162.57080078 C44.06237061 161.45431152 43.4467627 160.33782227 42.8125 159.1875 C42.15118668 157.99189949 41.48964209 156.79642687 40.82788086 155.60107422 C39.45747143 153.12531271 38.08804683 150.64901021 36.71923828 148.17236328 C34.18455259 143.588338 31.63745415 139.0112334 29.09082031 134.43383789 C24.594476 126.35174844 20.10506012 118.26597681 15.64453125 110.1640625 C15.30765289 109.5522261 14.97077454 108.94038971 14.62368774 108.31001282 C13.94300987 107.07371213 13.26233563 105.83740943 12.58166504 104.60110474 C12.24534058 103.99024017 11.90901611 103.37937561 11.5625 102.75 C11.2269812 102.14050507 10.8914624 101.53101013 10.54577637 100.90304565 C5.57417737 91.87548697 0.52867248 82.89224288 -4.56616211 73.93359375 C-9.21840418 65.72641213 -13.71586316 57.43837909 -18.17651367 49.12573242 C-18.68931885 48.17158447 -19.20212402 47.21743652 -19.73046875 46.234375 C-20.18188232 45.39100586 -20.6332959 44.54763672 -21.09838867 43.67871094 C-22.37443362 41.32095556 -22.37443362 41.32095556 -24.3125 38.5 C-23.99689854 34.06557076 -22.67231696 30.81091789 -20.546875 26.9453125 C-19.98613281 25.91792969 -19.42539062 24.89054687 -18.84765625 23.83203125 C-18.25855469 22.77371094 -17.66945313 21.71539062 -17.0625 20.625 C-16.48886719 19.57441406 -15.91523437 18.52382812 -15.32421875 17.44140625 C-14.19656888 15.38903211 -13.05178893 13.3459609 -11.88867188 11.31347656 C-10.31148896 8.57946333 -10.31148896 8.57946333 -9.12695312 5.95996094 C-6.77951163 1.27539184 -5.37899786 0.03117438 0 0 Z " fill="#009CFF" transform="translate(700.3125,73.5)"/>
<path d="M0 0 C3.63 0 7.26 0 11 0 C11.35449219 0.74378906 11.70898438 1.48757812 12.07421875 2.25390625 C16.32562659 10.9728952 21.0034375 19.40151333 25.80834961 27.82666016 C29.88115643 34.98204545 33.84560915 42.18895099 37.75 49.4375 C42.32535127 57.92552826 46.97582772 66.36159024 51.72900391 74.75097656 C61.27391655 91.64066833 70.68266513 108.60741833 80.09570312 125.57080078 C82.0146312 129.02634741 83.93656098 132.4802081 85.859375 135.93359375 C91.91597833 146.81395882 97.95776318 157.70215792 103.9375 168.625 C104.45207764 169.56190674 104.96665527 170.49881348 105.49682617 171.46411133 C106.19255737 172.73871216 106.19255737 172.73871216 106.90234375 174.0390625 C107.30960693 174.78365723 107.71687012 175.52825195 108.13647461 176.29541016 C109 178 109 178 109 179 C92.83 179 76.66 179 60 179 C56.5040625 172.6578125 56.5040625 172.6578125 52.9375 166.1875 C37.76981147 138.68659013 37.76981147 138.68659013 22.375 111.3125 C17.42862173 102.60150806 12.63212915 93.81728427 7.88330078 84.99731445 C4.08194549 77.95396418 0.19495447 70.96385788 -3.75 64 C-4.28568604 63.05012207 -4.82137207 62.10024414 -5.37329102 61.12158203 C-7.82956438 56.77700355 -10.3127418 52.45571005 -12.88671875 48.1796875 C-13.53785645 47.07947266 -13.53785645 47.07947266 -14.20214844 45.95703125 C-14.99871745 44.61451335 -15.80961391 43.2803444 -16.63769531 41.95703125 C-17.68359375 40.1796875 -17.68359375 40.1796875 -19 37 C-17.86070124 33.40614455 -16.1001753 30.13181365 -14.35546875 26.796875 C-13.84306641 25.81589844 -13.33066406 24.83492187 -12.80273438 23.82421875 C-12.26970703 22.80972656 -11.73667969 21.79523438 -11.1875 20.75 C-10.66607422 19.75097656 -10.14464844 18.75195312 -9.60742188 17.72265625 C-6.48888021 11.76589127 -3.29059176 5.8634574 0 0 Z " fill="#009CFF" transform="translate(1256,74)"/>
<path d="M0 0 C0.66 0 1.32 0 2 0 C2.44802979 0.8156543 2.89605957 1.63130859 3.35766602 2.47167969 C5.05435107 5.55878581 6.75243837 8.64511244 8.45141602 11.73095703 C9.18015088 13.05520167 9.90835934 14.37973615 10.63598633 15.70458984 C11.69466851 17.63199053 12.75550195 19.55819675 13.81640625 21.484375 C14.16402008 22.1189563 14.51163391 22.7535376 14.86978149 23.40734863 C16.55607562 26.46773471 18.27873372 29.48773771 20.12451172 32.45507812 C20.77307129 33.50630859 21.42163086 34.55753906 22.08984375 35.640625 C22.67499756 36.55875977 23.26015137 37.47689453 23.86303711 38.42285156 C25.24705422 41.55999664 25.09160475 42.78614632 24 46 C23.19962667 47.73229856 22.33000371 49.43354279 21.41015625 51.10546875 C20.87849854 52.0792749 20.34684082 53.05308105 19.79907227 54.05639648 C19.22600342 55.08966064 18.65293457 56.1229248 18.0625 57.1875 C17.17679321 58.80217163 17.17679321 58.80217163 16.27319336 60.44946289 C14.52233592 63.63682412 12.76240968 66.81901523 11 70 C10.13527191 71.56762849 9.27067203 73.13532772 8.40625 74.703125 C6.42329149 78.29098569 4.42751858 81.87153231 2.42626953 85.44921875 C0.72843901 88.48566745 -0.96567551 91.52418076 -2.66015625 94.5625 C-3.93992701 96.8542656 -5.21987412 99.14593274 -6.5 101.4375 C-7.11222412 102.53505615 -7.72444824 103.6326123 -8.35522461 104.76342773 C-8.92893799 105.78895752 -9.50265137 106.8144873 -10.09375 107.87109375 C-10.60615234 108.78818115 -11.11855469 109.70526855 -11.64648438 110.65014648 C-12.69697556 112.4739159 -13.83253508 114.24880261 -15 116 C-17.10073853 116.36076355 -17.10073853 116.36076355 -19.72509766 116.34057617 C-20.70596344 116.34034958 -21.68682922 116.34012299 -22.69741821 116.33988953 C-23.75891083 116.32440567 -24.82040344 116.30892181 -25.9140625 116.29296875 C-26.99883881 116.28872391 -28.08361511 116.28447906 -29.20126343 116.28010559 C-32.67609167 116.263273 -36.15034618 116.22561189 -39.625 116.1875 C-41.97655414 116.17245911 -44.32811735 116.15876967 -46.6796875 116.14648438 C-52.45332173 116.11335454 -58.22661989 116.06310982 -64 116 C-59.90880903 107.67487575 -55.69286297 99.4793949 -51.0625 91.4375 C-45.96319142 82.50019592 -40.9561058 73.51709181 -36 64.5 C-30.69208047 54.84870682 -25.32938576 45.23113677 -19.8918457 35.65209961 C-13.17890922 23.81406408 -6.59383266 11.90465262 0 0 Z " fill="#009CFF" transform="translate(660,137)"/>
<path d="M0 0 C3.04072639 2.81091355 5.02309947 5.49296651 6.953125 9.1484375 C7.48671631 10.14770264 8.02030762 11.14696777 8.57006836 12.17651367 C9.1244458 13.23201416 9.67882324 14.28751465 10.25 15.375 C14.80378834 24.04313523 14.80378834 24.04313523 19.69921875 32.51953125 C20.27591309 33.47110107 20.27591309 33.47110107 20.86425781 34.44189453 C21.86355643 36.06723237 22.88220831 37.68062744 23.90234375 39.29296875 C25 42 25 42 24.24365234 44.33374023 C22.97155473 47.06098367 21.62534647 49.71710074 20.19921875 52.3671875 C19.64081299 53.40601074 19.08240723 54.44483398 18.50708008 55.51513672 C17.60638794 57.17826904 17.60638794 57.17826904 16.6875 58.875 C15.75296997 60.60580811 15.75296997 60.60580811 14.79956055 62.37158203 C10.25751656 70.76391137 5.61440161 79.09709414 0.87963867 87.38232422 C-4.53054246 96.86172472 -9.7365741 106.43013473 -15 116 C-31.17 116 -47.34 116 -64 116 C-59.14820249 106.29640499 -54.3119659 96.74529022 -49 87.3125 C-48.02528741 85.570303 -47.05059036 83.82809717 -46.07662964 82.08547974 C-45.40476363 80.88349667 -44.73250084 79.68173531 -44.05984497 78.48019409 C-40.63889456 72.3661791 -37.26266264 66.22778494 -33.88656616 60.08892822 C-28.19375952 49.73996322 -22.44185761 39.42701054 -16.60791016 29.15673828 C-12.44529851 21.81936453 -8.36805454 14.43735417 -4.33666992 7.02709961 C-3.9110376 6.24729736 -3.48540527 5.46749512 -3.046875 4.6640625 C-2.67401367 3.97779785 -2.30115234 3.2915332 -1.91699219 2.58447266 C-1 1 -1 1 0 0 Z " fill="#009CFF" transform="translate(1222,137)"/>
<path d="M0 0 C0.66 0 1.32 0 2 0 C3.26821451 1.87495023 4.43675547 3.81745121 5.5625 5.78125 C6.08398872 6.68238022 6.08398872 6.68238022 6.61601257 7.60171509 C7.36244839 8.89298586 8.1055907 10.1861649 8.84579468 11.48101807 C10.76424986 14.83685631 12.70522245 18.17962142 14.64453125 21.5234375 C15.2140728 22.50750076 15.2140728 22.50750076 15.79512024 23.51144409 C18.65888557 28.44762143 21.62084478 33.31191062 24.6875 38.125 C27.80526168 43.031255 30.70486083 47.99893491 33.42578125 53.13671875 C35.78948411 57.43595994 38.35398673 61.61243597 40.92993164 65.78735352 C42.9952072 69.17079403 44.51361461 72.28403652 46 76 C15.97 76 -14.06 76 -45 76 C-38.24348407 63.61305413 -38.24348407 63.61305413 -35.66796875 59.203125 C-35.10198975 58.23294434 -34.53601074 57.26276367 -33.95288086 56.26318359 C-33.37030518 55.26883301 -32.78772949 54.27448242 -32.1875 53.25 C-31.57076416 52.19506348 -30.95402832 51.14012695 -30.31860352 50.05322266 C-26.72076717 43.90850804 -23.09940323 37.77926303 -19.41625977 31.68530273 C-17.14157964 27.91807803 -14.89761233 24.13392993 -12.66796875 20.33984375 C-12.08281494 19.34484863 -11.49766113 18.34985352 -10.89477539 17.32470703 C-9.73702972 15.35419164 -8.58118953 13.38255516 -7.42749023 11.40966797 C-6.89712158 10.50748535 -6.36675293 9.60530273 -5.8203125 8.67578125 C-5.11285889 7.4678894 -5.11285889 7.4678894 -4.39111328 6.2355957 C-3.02596245 4.04172309 -1.67245721 1.97149278 0 0 Z " fill="#000000" transform="translate(215,133)"/>
<path d="M0 0 C0.66 0.33 1.32 0.66 2 1 C-0.64 3.64 -3.28 6.28 -6 9 C-6.33 8.34 -6.66 7.68 -7 7 C-4.78071806 4.09197539 -3.07030857 2.04687238 0 0 Z " fill="#353535" transform="translate(2001,169)"/>
</svg>
